<?xml version="1.0" encoding="UTF-8"?>
<svg version="1.1" xmlns="http://www.w3.org/2000/svg" width="256" height="256">
<path d="M0 0 C84.48 0 168.96 0 256 0 C256 84.48 256 168.96 256 256 C171.52 256 87.04 256 0 256 C0 171.52 0 87.04 0 0 Z " fill="#FBFAFB" transform="translate(0,0)"/>
<path d="M0 0 C3.81798612 0.7904873 7.48037744 1.92490395 11.1875 3.125 C13.29172362 3.77358471 15.39723672 4.41799817 17.50390625 5.05859375 C18.57398926 5.38456543 19.64407227 5.71053711 20.74658203 6.04638672 C26.0002328 7.58629066 31.30695457 8.89104221 36.625 10.1875 C50.25373304 13.54360023 50.25373304 13.54360023 56.3125 15.1875 C57.36050781 15.46980469 58.40851563 15.75210938 59.48828125 16.04296875 C63.57695684 17.60086225 63.57695684 17.60086225 65 20 C64.71306707 26.00232665 62.85187832 31.83793317 61.3125 37.625 C61.05065918 38.61959229 60.78881836 39.61418457 60.51904297 40.63891602 C57.82432495 50.80068323 54.93752719 60.90615658 52 71 C52.5676709 71.50974365 53.1353418 72.0194873 53.72021484 72.54467773 C56.48427471 75.52156251 58.44986141 78.7920835 60.4765625 82.28515625 C60.88788422 82.98265488 61.29920593 83.6801535 61.72299194 84.39878845 C63.02939241 86.61671518 64.32741336 88.83940752 65.625 91.0625 C66.93152497 93.28806618 68.23973319 95.5126344 69.5484314 97.73692322 C70.3603331 99.11824256 71.17063931 100.50050123 71.97915649 101.88380432 C73.59198669 104.63905774 75.22843233 107.34264849 77 110 C76.75 113.125 76.75 113.125 76 116 C73.23547967 117.38226016 70.9538637 117.09525387 67.875 117.0625 C66.77929688 117.05347656 65.68359375 117.04445313 64.5546875 117.03515625 C63.29011719 117.01775391 63.29011719 117.01775391 62 117 C62.00999275 118.20483284 62.00999275 118.20483284 62.02018738 119.43400574 C62.08034997 127.0112443 62.12600044 134.58836672 62.15543652 142.16578197 C62.17107878 146.06122736 62.19229041 149.95647503 62.22631836 153.85180664 C62.25896368 157.61248525 62.27686385 161.37297394 62.28463173 165.13378334 C62.290166 166.56709087 62.30097321 168.00038826 62.31719017 169.43361473 C62.33903055 171.44416503 62.34022597 173.45490728 62.34057617 175.46557617 C62.35056892 177.18099861 62.35056892 177.18099861 62.36076355 178.93107605 C61.80017218 183.69988451 60.04588974 185.99201587 56.63513184 189.27915955 C51.63526615 192.31682422 45.48017945 191.56290273 39.83789062 191.53344727 C38.49699456 191.540511 37.15610646 191.54925793 35.81523132 191.55955505 C32.18500294 191.58200685 28.55521138 191.57911967 24.92494011 191.57023358 C21.89058886 191.56511456 18.85631904 191.57242353 15.82197618 191.57970566 C8.66265745 191.59669081 1.50355193 191.59315236 -5.65576172 191.57641602 C-13.0347898 191.55948885 -20.41322655 191.57534002 -27.79219007 191.6076389 C-34.13549655 191.63434972 -40.47861913 191.64160704 -46.82197618 191.63312382 C-50.60717428 191.62819973 -54.39201651 191.63038187 -58.1771698 191.65091133 C-61.73645039 191.66929285 -65.29488128 191.66328116 -68.85411644 191.63871193 C-70.77806276 191.63133297 -72.70205447 191.64853971 -74.62593079 191.66653442 C-84.06172839 191.56291684 -84.06172839 191.56291684 -87.69763184 188.71055603 C-91.58851006 184.12986229 -92.25045727 181.61797635 -92.22705078 175.57910156 C-92.22689972 174.27805481 -92.22674866 172.97700806 -92.22659302 171.63653564 C-92.21638046 170.22123053 -92.20594848 168.80592699 -92.1953125 167.390625 C-92.19158071 165.93902786 -92.18873452 164.4874282 -92.18673706 163.03582764 C-92.17911364 159.22175093 -92.15947635 155.40782738 -92.1373291 151.59381104 C-92.11684278 147.69928051 -92.10772939 143.80472516 -92.09765625 139.91015625 C-92.07622915 132.2733678 -92.04210892 124.63670539 -92 117 C-93.13888672 117.05220703 -93.13888672 117.05220703 -94.30078125 117.10546875 C-95.29464844 117.13253906 -96.28851563 117.15960938 -97.3125 117.1875 C-98.29863281 117.22230469 -99.28476563 117.25710937 -100.30078125 117.29296875 C-103 117 -103 117 -104.86064148 115.69311523 C-106 114 -106 114 -105.91723633 110.72265625 C-104.92663476 106.70224298 -103.51270552 103.94363225 -101.32421875 100.4375 C-100.77457207 99.54502563 -100.77457207 99.54502563 -100.21382141 98.63452148 C-99.04947675 96.74918741 -97.86912017 94.87454409 -96.6875 93 C-95.52045956 91.12324992 -94.35677748 89.24444734 -93.1933136 87.36547852 C-92.13371455 85.65835393 -91.06646998 83.95598178 -89.9987793 82.25390625 C-89.33918213 81.18011719 -88.67958496 80.10632813 -88 79 C-87.62384552 78.38928146 -87.24769104 77.77856293 -86.86013794 77.14933777 C-84.2123757 72.71863333 -83.6122728 70.43445233 -84.5 65.3125 C-84.71398437 64.01699219 -84.92796875 62.72148438 -85.1484375 61.38671875 C-85.74874005 58.21650786 -86.39161637 55.0554177 -87.0390625 51.89453125 C-87.30686523 50.58391724 -87.30686523 50.58391724 -87.58007812 49.24682617 C-87.93426618 47.54269289 -88.29955442 45.84081579 -88.67773438 44.1418457 C-91.51469147 30.90315865 -91.51469147 30.90315865 -88.5 25.125 C-82.90649568 20.37052133 -75.38767063 19.29770314 -68.34765625 18.02734375 C-67.44808701 17.85876358 -66.54851776 17.69018341 -65.62168884 17.51649475 C-62.76984231 16.9833551 -59.91630554 16.46004138 -57.0625 15.9375 C-54.21266951 15.40939555 -51.36323357 14.87923106 -48.51402283 14.34779358 C-46.74913313 14.01927791 -44.98382761 13.69298502 -43.21803284 13.36936951 C-38.45178358 12.489525 -33.72591169 11.51444824 -29.00926208 10.39723206 C-25.95228995 9.79286723 -23.09628959 9.74724167 -20 10 C-19.01 10.99 -19.01 10.99 -18 12 C-17.74605469 11.38511719 -17.49210937 10.77023438 -17.23046875 10.13671875 C-16.88628906 9.32847656 -16.54210937 8.52023438 -16.1875 7.6875 C-15.85105469 6.88699219 -15.51460938 6.08648437 -15.16796875 5.26171875 C-11.70707828 -1.44013939 -6.88948663 -0.67576569 0 0 Z " fill="#4C2E1C" transform="translate(142,31)"/>
<path d="M0 0 C46.2 0 92.4 0 140 0 C140 21.45 140 42.9 140 65 C136.57205417 68.42794583 136.15058744 68.37567489 131.57226562 68.38095093 C129.88133789 68.39364014 129.88133789 68.39364014 128.15625 68.40658569 C126.3 68.39747665 126.3 68.39747665 124.40625 68.38818359 C122.45235352 68.39606903 122.45235352 68.39606903 120.45898438 68.40411377 C116.88460947 68.41780351 113.31049401 68.41248204 109.7361145 68.40297651 C105.99789727 68.39538843 102.25970246 68.40242315 98.52148438 68.40713501 C92.24344895 68.41259506 85.96551936 68.40539446 79.6875 68.39111328 C72.42619089 68.37478622 65.16513447 68.38007455 57.90383148 68.3965925 C51.67275579 68.41020031 45.44175622 68.4121305 39.21067047 68.40427649 C35.48765419 68.39959606 31.76475673 68.39898517 28.04174805 68.40888596 C23.89226278 68.41914981 19.74321409 68.40492979 15.59375 68.38818359 C14.35625 68.39425629 13.11875 68.40032898 11.84375 68.40658569 C10.71646484 68.39812622 9.58917969 68.38966675 8.42773438 68.38095093 C6.95548401 68.37925431 6.95548401 68.37925431 5.45349121 68.37752342 C3 68 3 68 0 65 C0 43.55 0 22.1 0 0 Z " fill="#C78F54" transform="translate(57,148)"/>
<path d="M0 0 C4.75745131 0.13704592 9.08045083 1.78510702 13.5703125 3.24609375 C17.19111565 4.37612843 20.81227182 5.30198523 24.5 6.1875 C31.6647042 7.92009981 38.73797949 9.93168569 45.8125 12 C46.84415283 12.30139893 47.87580566 12.60279785 48.9387207 12.91333008 C53.71918374 14.32036388 58.46511025 15.78187345 63.1875 17.375 C58.60399796 36.17579648 53.79186617 54.84719238 48.1875 73.375 C47.1975 76.675 46.2075 79.975 45.1875 83.375 C30.6675 83.375 16.1475 83.375 1.1875 83.375 C-0.22137678 75.84991042 -1.62823587 68.32450011 -3.0300293 60.7980957 C-3.50704564 58.24025934 -3.98522117 55.68263886 -4.46459961 53.12524414 C-5.15526698 49.43953324 -5.84169857 45.75305429 -6.52734375 42.06640625 C-6.74092026 40.93167374 -6.95449677 39.79694122 -7.17454529 38.62782288 C-10.4435081 20.9798651 -10.4435081 20.9798651 -8.88671875 15.62890625 C-8.66693359 14.85482422 -8.44714844 14.08074219 -8.22070312 13.28320312 C-7.98287109 12.50912109 -7.74503906 11.73503906 -7.5 10.9375 C-7.1606543 9.73577148 -7.1606543 9.73577148 -6.81445312 8.50976562 C-4.50225047 0.60030006 -4.50225047 0.60030006 0 0 Z " fill="#FEC72C" transform="translate(136.8125,36.625)"/>
<path d="M0 0 C1.2118204 6.1293131 2.42010839 12.25930964 3.62548828 18.38989258 C4.03375893 20.46396495 4.44290204 22.53786583 4.85302734 24.61157227 C7.1052997 36.00297923 9.29167812 47.40205204 11.296875 58.83984375 C11.46930725 59.81707901 11.6417395 60.79431427 11.81939697 61.80116272 C11.97535339 62.70330002 12.13130981 63.60543732 12.29199219 64.53491211 C12.42933777 65.3272374 12.56668335 66.11956268 12.70819092 66.93589783 C13 69 13 69 13 72 C-4.49 72 -21.98 72 -40 72 C-41.258125 65.565 -42.51625 59.13 -43.8125 52.5 C-44.20284424 50.50517578 -44.59318848 48.51035156 -44.99536133 46.45507812 C-45.83785482 42.14676471 -46.6739846 37.83723576 -47.50836182 33.52734375 C-47.97741004 31.11612728 -48.45368385 28.70643573 -48.93115234 26.296875 C-49.20827348 24.87505175 -49.48514505 23.45317984 -49.76171875 22.03125 C-50.00237061 20.80986328 -50.24302246 19.58847656 -50.4909668 18.33007812 C-50.97586125 15.15791491 -51.09679668 12.20253488 -51 9 C-45.57453366 7.87626522 -40.1484964 6.7553434 -34.72192383 5.63696289 C-32.8780163 5.25654076 -31.03426384 4.8753661 -29.19067383 4.4934082 C-26.53247374 3.94281694 -23.87371774 3.39498267 -21.21484375 2.84765625 C-19.98942116 2.59291283 -19.98942116 2.59291283 -18.73924255 2.33302307 C-12.51709881 1.05642335 -6.38350474 -0.19343954 0 0 Z " fill="#50B45D" transform="translate(119,48)"/>
<path d="M0 0 C1.40119523 0.01465678 2.80237964 0.03037837 4.20355225 0.04705811 C5.68903155 0.02858214 7.17446362 0.00590467 8.65982056 -0.02064514 C12.68538558 -0.07896 16.70851337 -0.07374016 20.73436117 -0.0534389 C24.09921621 -0.0421325 27.46360914 -0.06163396 30.8284055 -0.08098847 C38.76960988 -0.12606172 46.70961668 -0.11940949 54.65081787 -0.07989502 C62.83297329 -0.04002212 71.01161027 -0.08396715 79.19333255 -0.16991085 C86.22732228 -0.24100849 93.26021323 -0.26145188 100.2945329 -0.24124295 C104.4918539 -0.2295904 108.68697519 -0.23650469 112.88399887 -0.29153252 C116.83382141 -0.3409784 120.77851321 -0.32683135 124.72810745 -0.26472282 C126.17281272 -0.25238042 127.61790598 -0.26195327 129.06227112 -0.29564285 C133.57176408 -0.39264338 137.47096191 -0.24812196 141.69622803 1.38861084 C145.32816008 5.35223823 149.69622803 10.78687675 149.69622803 16.38861084 C94.25622803 16.38861084 38.81622803 16.38861084 -18.30377197 16.38861084 C-17.64377197 14.73861084 -16.98377197 13.08861084 -16.30377197 11.38861084 C-15.97450148 10.52116714 -15.64523098 9.65372343 -15.30598259 8.75999355 C-11.74613944 1.17646425 -8.13162052 0.20738788 0 0 Z " fill="#DDAD77" transform="translate(61.30377197265625,125.61138916015625)"/>
<path d="M0 0 C3.41467753 0.86684781 5.32857276 2.81168547 7.671875 5.36328125 C9.21354355 6.80874319 9.21354355 6.80874319 11.30859375 6.421875 C13.58783029 5.58068035 13.58783029 5.58068035 15.96484375 3.015625 C19.19596883 0.21094282 21.93043244 -0.22871321 26.15234375 0.03515625 C29.05178065 0.77600502 30.79093133 2.27000393 32.46484375 4.734375 C33.94256545 8.08766656 34.03003709 11.0153765 33.27734375 14.578125 C30.95915966 19.31108419 27.54349155 22.24027449 23.58203125 25.56640625 C19.26024057 29.33881676 15.2946366 33.48674273 11.27734375 37.578125 C7.96279901 36.13293163 5.77993403 34.32657519 3.23828125 31.76953125 C2.49320313 31.02251953 1.748125 30.27550781 0.98046875 29.50585938 C0.2121875 28.72533203 -0.55609375 27.94480469 -1.34765625 27.140625 C-2.51167969 25.97563477 -2.51167969 25.97563477 -3.69921875 24.78710938 C-12.01274961 16.40862905 -12.01274961 16.40862905 -12.16015625 10.703125 C-12.06246097 6.99070429 -11.80325973 5.70813062 -9.78515625 2.453125 C-6.25511684 0.29187638 -4.08440795 -0.19028856 0 0 Z " fill="#C78F54" transform="translate(116.72265625,161.421875)"/>
<path d="M0 0 C2.19874168 0.8943372 4.19002736 1.92845412 6.23828125 3.125 C8.11996642 4.2224145 8.11996642 4.2224145 11 4 C12.0725 3.34 13.145 2.68 14.25 2 C18.00495158 -0.20416445 20.60108518 -0.61739155 25 0 C31.05799199 2.12940696 35.0722501 5.14450021 38 11 C38.17455695 12.9115417 38.26715146 14.83104056 38.3125 16.75 C38.36857422 18.28914063 38.36857422 18.28914063 38.42578125 19.859375 C37.33061968 27.93744748 29.60669559 33.79919861 24.09130859 39.33422852 C22.49192518 40.94563552 20.91214862 42.57480218 19.33203125 44.20507812 C18.31625392 45.2303071 17.29936544 46.25443662 16.28125 47.27734375 C15.36408203 48.20796631 14.44691406 49.13858887 13.50195312 50.09741211 C11 52 11 52 9.03173828 52.13427734 C5.9689867 50.42440666 3.6480435 48.05449467 1.2109375 45.57421875 C0.66643951 45.03021927 0.12194153 44.48621979 -0.4390564 43.92573547 C-1.58732883 42.77512559 -2.73191683 41.62082856 -3.87304688 40.46313477 C-5.61695196 38.69565682 -7.37376931 36.94185191 -9.1328125 35.18945312 C-10.24818992 34.06849791 -11.36279939 32.94677793 -12.4765625 31.82421875 C-13.00053619 31.30115646 -13.52450989 30.77809418 -14.06436157 30.23918152 C-17.9501489 26.27740928 -20.27532339 23.29929301 -20.375 17.6875 C-20.22928389 12.14118054 -18.4057684 8.36894541 -14.46875 4.4921875 C-9.7410231 0.43653942 -6.21134464 -0.8376069 0 0 Z M-11.0625 8.875 C-13.3716259 12.59939661 -13.97069428 14.98263082 -13.7265625 19.33203125 C-12.23910173 24.79405118 -7.98613133 28.19733078 -4 32 C-2.90675489 33.09557471 -1.81704695 34.19468779 -0.73046875 35.296875 C2.15724231 38.22121484 5.07171609 41.11630924 8 44 C10.95499307 42.67099659 13.01274778 41.22700207 15.27734375 38.91796875 C15.87353516 38.31533203 16.46972656 37.71269531 17.08398438 37.09179688 C18.00147461 36.14916992 18.00147461 36.14916992 18.9375 35.1875 C19.54529297 34.57068359 20.15308594 33.95386719 20.77929688 33.31835938 C21.96987279 32.10980281 23.15793926 30.89876806 24.34326172 29.68505859 C25.83869303 28.16406436 27.35490962 26.66801654 28.87890625 25.17578125 C31.73760769 22.24337481 31.95738985 21.42610148 32.375 17.25 C32.312181 14.12047143 31.85432761 12.08614294 30.0625 9.5 C26.50874323 6.59897407 24.75299867 6.12607329 20.27734375 6.38671875 C16.88201184 7.30107057 14.94724994 9.23521673 12.60546875 11.78515625 C11 13 11 13 8.96875 12.84375 C7 12 7 12 4.3125 9.4375 C1.07376038 6.61798809 -1.64744917 6.24560467 -5.875 6.53125 C-8.27511948 6.93954362 -8.27511948 6.93954362 -11.0625 8.875 Z " fill="#4A2A19" transform="translate(118,155)"/>
<path d="M0 0 C2.71484468 13.33735774 5.36234174 26.68807607 7.90643311 40.05908203 C8.17587914 41.47139559 8.44722387 42.8833483 8.72052002 44.29492188 C9.10685169 46.29328287 9.48594399 48.29289249 9.86328125 50.29296875 C10.08282471 51.4430542 10.30236816 52.59313965 10.52856445 53.77807617 C10.98612079 56.90514555 11.08684878 59.8450911 11 63 C9.02 63 7.04 63 5 63 C2.26038722 50.68461316 -0.38849769 38.3497748 -2.90643311 25.98712158 C-3.30636011 24.03004608 -3.71294344 22.0743346 -4.11962891 20.11865234 C-4.36503418 18.90387207 -4.61043945 17.6890918 -4.86328125 16.4375 C-5.08282471 15.36371094 -5.30236816 14.28992188 -5.52856445 13.18359375 C-6.04182188 9.71757779 -6.20458697 6.49841062 -6 3 C-3.96080228 0.89282902 -2.95416573 0 0 0 Z " fill="#3B8F45" transform="translate(64,58)"/>
<path d="M0 0 C5.97421009 -0.55574047 10.72204807 1.02909898 16.3828125 2.87109375 C20.00361565 4.00112843 23.62477182 4.92698523 27.3125 5.8125 C34.4772042 7.54509981 41.55047949 9.55668569 48.625 11.625 C49.65665283 11.92639893 50.68830566 12.22779785 51.7512207 12.53833008 C56.53028256 13.94495147 61.28908071 15.37609949 66 17 C65.505 19.475 65.505 19.475 65 22 C53.787998 19.96596424 42.93670823 17.17307103 32 14 C29.94531791 13.40883536 27.89063012 12.81769053 25.8359375 12.2265625 C23.7029306 11.61004717 21.57011623 10.99286536 19.4375 10.375 C18.43855713 10.08592773 17.43961426 9.79685547 16.41040039 9.49902344 C10.55960807 7.79137826 4.7696134 5.96488382 -1 4 C-0.67 2.68 -0.34 1.36 0 0 Z " fill="#F9D74C" transform="translate(134,37)"/>
<path d="M0 0 C8 8 8 8 8 12 C4.37 12 0.74 12 -3 12 C-2.01 8.04 -1.02 4.08 0 0 Z " fill="#A97642" transform="translate(191,109)"/>
<path d="M0 0 C0.66 0 1.32 0 2 0 C2.33 2.64 2.66 5.28 3 8 C0.69 8 -1.62 8 -4 8 C-2.68 5.36 -1.36 2.72 0 0 Z " fill="#B27E47" transform="translate(60,112)"/>
<path d="M0 0 C0.99 0.33 1.98 0.66 3 1 C0.03 3.64 -2.94 6.28 -6 9 C-6.66 8.67 -7.32 8.34 -8 8 C-5.36 5.36 -2.72 2.72 0 0 Z " fill="#56341F" transform="translate(142,184)"/>
<path d="M0 0 C0.99 0 1.98 0 3 0 C2.67 2.97 2.34 5.94 2 9 C-0.29013653 5.5647952 -0.17842973 4.014669 0 0 Z " fill="#472516" transform="translate(68,77)"/>
</svg>
