<?xml version="1.0" encoding="UTF-8"?>
<svg version="1.1" xmlns="http://www.w3.org/2000/svg" width="1024" height="1024">
<path d="M0 0 C337.92 0 675.84 0 1024 0 C1024 337.92 1024 675.84 1024 1024 C686.08 1024 348.16 1024 0 1024 C0 686.08 0 348.16 0 0 Z " fill="#FBFBFB" transform="translate(0,0)"/>
<path d="M0 0 C1.90992788 0.5034726 3.82021419 1.00558722 5.73083496 1.50642395 C9.68261043 2.54489026 13.63200839 3.59176135 17.57958984 4.64605713 C23.03969069 6.10387559 28.50509823 7.54065489 33.97265625 8.97021484 C43.68679097 11.51266458 53.39512776 14.07674477 63.10243988 16.64510345 C67.94835114 17.92685998 72.79474999 19.2067703 77.64111328 20.48681641 C83.71827982 22.09202878 89.79541419 23.69736211 95.87234497 25.3034668 C109.29961227 28.85201348 122.72868273 32.39366298 136.15909576 35.9302845 C139.23311422 36.73979814 142.30708683 37.5494856 145.38104248 38.35923767 C146.3858453 38.62392507 147.39064812 38.88861246 148.42589951 39.16132069 C150.43598409 39.69082648 152.44606762 40.22033632 154.45615005 40.74985027 C159.27767494 42.01991037 164.09929409 43.28961013 168.92114258 44.55844116 C178.5601758 47.0951523 188.19781 49.63697597 197.83176041 52.19293118 C202.11619677 53.32929116 206.40162596 54.4616484 210.68908691 55.58654785 C214.99522919 56.71637614 219.29907461 57.85458433 223.60144424 58.99869156 C225.20163204 59.42265655 226.80261304 59.8436412 228.40444565 60.26134872 C251.03647381 66.16823153 251.03647381 66.16823153 257.78125 77.51171875 C259.59451596 85.30876237 258.11974369 92.64493858 255.8984375 100.17578125 C255.48918785 101.6246019 255.48918785 101.6246019 255.07167053 103.10269165 C254.47150529 105.22197544 253.86540699 107.33958588 253.25411987 109.45568848 C251.89695617 114.15482361 250.56897002 118.86207757 249.23857117 123.56884766 C248.5023323 126.17246513 247.76483453 128.77569078 247.02546692 131.37841797 C243.96241511 142.17062521 240.97169809 152.98202544 238.00390625 163.80078125 C237.65755316 165.06318949 237.65755316 165.06318949 237.30420303 166.35110092 C236.12463992 170.6513685 234.9459266 174.95186844 233.7677002 179.25250244 C231.4178062 187.82949715 229.06414223 196.40545462 226.70703125 204.98046875 C226.47949032 205.8082999 226.25194939 206.63613106 226.01751328 207.489048 C223.00794186 218.4333789 219.96785771 229.36857277 216.88671875 240.29296875 C216.54992599 241.48815125 216.21313324 242.68333374 215.86613464 243.91473389 C214.34038604 249.32465276 212.80820293 254.73262109 211.26538086 260.13769531 C210.7419084 261.98629518 210.21854442 263.83492578 209.6953125 265.68359375 C209.34082283 266.91184875 209.34082283 266.91184875 208.97917175 268.16491699 C207.98990308 271.67517474 207.40625 274.52235331 207.40625 278.19921875 C208.79823288 279.1498412 210.19933916 280.08941184 211.63964844 280.96508789 C218.4476023 285.72105898 222.59203659 293.45068136 226.59375 300.51171875 C227.73464783 302.48312188 228.87791988 304.4531527 230.0234375 306.421875 C230.5915918 307.39914551 231.15974609 308.37641602 231.74511719 309.38330078 C234.15053879 313.46092171 236.67043131 317.45982975 239.21875 321.44921875 C243.95940607 328.88389707 248.60785053 336.37085864 253.21875 343.88671875 C259.01959809 353.33852258 264.86867464 362.75814735 270.75878906 372.15454102 C276.04659454 380.5999178 281.26015753 389.08982752 286.4675293 397.58496094 C291.54176517 405.84299438 296.7176044 414.03213205 301.97875977 422.17236328 C307.24045802 430.35687793 310.66614759 436.23328726 309.40625 446.19921875 C307.41260732 452.86722138 303.439973 456.81113017 297.51678467 460.31784058 C295.0650333 461.3417139 293.28944861 461.44052627 290.63769531 461.42626953 C289.69702209 461.42611847 288.75634888 461.42596741 287.78717041 461.42581177 C286.77974792 461.4154892 285.77232544 461.40516663 284.734375 461.39453125 C283.69682068 461.39170135 282.65926636 461.38887146 281.590271 461.38595581 C278.27881299 461.3747674 274.96762616 461.34966502 271.65625 461.32421875 C269.41016016 461.31418723 267.16406607 461.30506168 264.91796875 461.296875 C259.41397009 461.27483245 253.91012942 461.24136807 248.40625 461.19921875 C248.41085896 462.49112971 248.41546793 463.78304068 248.42021656 465.11410046 C248.52863164 495.81853034 248.61101537 526.52290835 248.66157665 557.22748385 C248.66782978 561.01111262 248.67430143 564.79474098 248.6809082 568.57836914 C248.68221976 569.33158464 248.68353131 570.08480014 248.6848826 570.86084036 C248.7066073 583.03829009 248.74601251 595.21562116 248.79201398 607.39300063 C248.83886059 619.89890323 248.86656268 632.40474392 248.87669247 644.91073066 C248.8835347 652.62045045 248.9051025 660.32983476 248.94583233 668.03945122 C248.9755208 673.96274987 248.97850351 679.88587868 248.97178841 685.80925369 C248.97315913 688.23071285 248.98304035 690.65218521 249.00227737 693.07356834 C249.14198744 711.57307239 247.24227697 725.78698546 234.15625 739.88671875 C223.20067872 750.26568101 209.30317162 754.36253248 194.53918457 754.33064651 C193.21056234 754.33372547 193.21056234 754.33372547 191.85509926 754.33686662 C188.87799494 754.34253481 185.9009369 754.34107958 182.92382812 754.33966064 C180.77135636 754.34224439 178.61888507 754.34525757 176.46641445 754.34866405 C170.54397365 754.35673631 164.62154496 754.35852375 158.6990993 754.35926151 C152.31441596 754.36111169 145.92973891 754.36865888 139.5450592 754.37539673 C124.85175335 754.38969106 110.15844996 754.39550701 95.46513836 754.40008867 C88.2019515 754.40242546 80.93876543 754.40602822 73.67557918 754.40978405 C48.8059321 754.42261945 23.93628546 754.43333826 -0.93336487 754.43678665 C-2.49430233 754.43700828 -4.0552398 754.43723007 -5.61617726 754.437452 C-7.18085682 754.43767264 -8.74553639 754.43789313 -10.31021595 754.43811345 C-13.44916089 754.438556 -16.58810584 754.43900312 -19.72705078 754.43945312 C-20.89446296 754.43961721 -20.89446296 754.43961721 -22.08545922 754.43978461 C-47.31396359 754.44341424 -72.54243922 754.45933076 -97.77093259 754.48264349 C-124.45272248 754.507254 -151.13449595 754.52096007 -177.81629753 754.52215457 C-180.74683508 754.52232602 -183.67737262 754.52254145 -186.60791016 754.522789 C-187.69025732 754.52287265 -187.69025732 754.52287265 -188.79447009 754.522958 C-200.39384641 754.52410743 -211.99319316 754.53512033 -223.59255951 754.54967606 C-235.25792295 754.56406115 -246.92323987 754.56701475 -258.58861071 754.55923608 C-264.90520508 754.55533089 -271.22170024 754.55625292 -277.53828239 754.57029343 C-283.32572281 754.58303994 -289.11298952 754.58182804 -294.90042973 754.56970271 C-296.98931638 754.56774703 -299.07821537 754.57081815 -301.16708469 754.57954708 C-320.8667015 754.6566269 -338.38262198 752.95019135 -353.33984375 738.6171875 C-361.12626668 730.26398855 -367.72268534 719.55416033 -367.71679783 707.80268478 C-367.71878888 706.9238717 -367.72077993 706.04505861 -367.72283131 705.13961482 C-367.71846205 703.69798626 -367.71846205 703.69798626 -367.71400452 702.22723389 C-367.71485894 701.2029281 -367.71571337 700.17862231 -367.71659368 699.12327695 C-367.7182447 695.68079982 -367.71273324 692.2383711 -367.70727539 688.79589844 C-367.70699341 686.33228557 -367.70715146 683.86867263 -367.7077179 681.40505981 C-367.70794583 676.09580611 -367.70510392 670.78656756 -367.69948006 665.47731781 C-367.69135417 657.80102863 -367.68874872 650.1247454 -367.68749207 642.44845238 C-367.68530326 629.99427739 -367.67864781 617.54010894 -367.66918945 605.0859375 C-367.66001091 592.98763054 -367.65293224 580.88932536 -367.64868164 568.79101562 C-367.64841892 568.04531762 -367.64815619 567.29961962 -367.64788551 566.53132471 C-367.64658047 562.79038945 -367.64531677 559.04945417 -367.64407361 555.30851889 C-367.63370633 524.27208075 -367.61601835 493.23565074 -367.59375 462.19921875 C-368.81368652 462.22016602 -370.03362305 462.24111328 -371.29052734 462.26269531 C-375.85648666 462.33559962 -380.42239548 462.38120045 -384.98876953 462.41894531 C-386.95760782 462.43894662 -388.92638756 462.46615677 -390.89501953 462.50097656 C-393.74005658 462.55000406 -396.58430215 462.57230257 -399.4296875 462.58984375 C-400.73031631 462.62081146 -400.73031631 462.62081146 -402.05722046 462.65240479 C-409.08846403 462.65493337 -416.19994397 461.2927335 -421.54623413 456.41949463 C-426.67353721 450.71979488 -428.19521225 446.06901714 -428.01953125 438.39453125 C-427.2771869 432.82354336 -424.63725098 428.83834161 -421.59375 424.19921875 C-420.80780611 422.9796739 -420.02270218 421.75958748 -419.23828125 420.5390625 C-417.89232287 418.45296719 -416.54196269 416.37013631 -415.18188477 414.29321289 C-411.233983 408.25374225 -407.45608989 402.1208354 -403.71875 395.94921875 C-399.25211821 388.57387066 -394.76555899 381.21295374 -390.21875 373.88671875 C-385.39078393 366.10451308 -380.57940387 358.31234497 -375.78125 350.51171875 C-375.10980957 349.42012451 -374.43836914 348.32853027 -373.74658203 347.20385742 C-372.37834668 344.97921051 -371.01018296 342.75451954 -369.64208984 340.52978516 C-366.29381311 335.08554306 -362.94367981 329.64244376 -359.59375 324.19921875 C-358.61825195 322.61391357 -358.61825195 322.61391357 -357.62304688 320.99658203 C-354.50287465 315.92591715 -351.38231085 310.85549434 -348.26046753 305.78585815 C-346.78832975 303.39516844 -345.31639817 301.00435181 -343.84448242 298.61352539 C-342.80732993 296.92907543 -341.76987974 295.24480878 -340.73242188 293.56054688 C-340.10271484 292.53767578 -339.47300781 291.51480469 -338.82421875 290.4609375 C-338.27145264 289.56334717 -337.71868652 288.66575684 -337.14916992 287.7409668 C-336.63588135 286.90218994 -336.12259277 286.06341309 -335.59375 285.19921875 C-334.73354248 283.99495239 -334.73354248 283.99495239 -333.85595703 282.76635742 C-332.19891031 279.39617438 -332.5557389 277.55256928 -333.16796875 273.86328125 C-333.32008064 272.8975267 -333.32008064 272.8975267 -333.4752655 271.91226196 C-333.70583444 270.4641575 -333.94503825 269.01741021 -334.19134521 267.57189941 C-334.61523704 265.07252572 -335.01226519 262.56991499 -335.40478516 260.06542969 C-336.19941524 255.02598008 -337.02097988 249.99126176 -337.84963989 244.95730591 C-338.42211592 241.47778535 -338.99032399 237.99758361 -339.55834961 234.51733398 C-341.84711099 220.54305459 -344.20770505 206.58289276 -346.62673378 192.63062286 C-347.52837396 187.4228497 -348.42342118 182.21393728 -349.31900311 177.00511932 C-350.19904374 171.89316631 -351.091283 166.78352899 -351.9923687 161.67524624 C-352.55988896 158.44154777 -353.11611924 155.20597418 -353.6696701 151.96985817 C-353.92840661 150.47119933 -354.19171611 148.97332068 -354.46024323 147.47638512 C-357.65223096 129.65262307 -358.47486143 113.41375258 -348.28125 97.51171875 C-336.69588386 81.63547627 -319.63482679 77.38849964 -301.20169067 74.42144775 C-298.56254586 73.99663558 -295.92558377 73.55993349 -293.28881836 73.12060547 C-289.43152335 72.47893252 -285.57348498 71.84202232 -281.71484375 71.20849609 C-271.02261027 69.44973542 -260.33972709 67.63526025 -249.65625 65.82421875 C-248.54439331 65.63616669 -247.43253662 65.44811462 -246.2869873 65.25436401 C-228.76210714 62.28853 -211.26524563 59.18449954 -193.77789307 56.00552368 C-177.66285317 53.0781189 -161.52793413 50.30791185 -145.36352539 47.66723633 C-137.27296913 46.3412309 -129.19886865 44.96568408 -121.14453125 43.43359375 C-120.3919957 43.29153 -119.63946014 43.14946625 -118.86412048 43.00309753 C-115.37843657 42.34391806 -111.89605778 41.67275253 -108.41772461 40.97583008 C-88.36621178 37.14212316 -88.36621178 37.14212316 -79.96875 40.76171875 C-74.62587729 46.24519338 -72.9413677 51.70773697 -71.90625 59.07421875 C-71.57409632 64.03712112 -71.57409632 64.03712112 -69.59375 68.19921875 C-69.45229553 67.6178566 -69.31084106 67.03649445 -69.1651001 66.43751526 C-67.6824065 60.35108402 -66.18782953 54.26765731 -64.68652344 48.18579102 C-64.12882251 45.91992903 -63.57408885 43.65333445 -63.02246094 41.38598633 C-62.22602263 38.11469504 -61.41871742 34.84624446 -60.609375 31.578125 C-60.36753479 30.57463516 -60.12569458 29.57114532 -59.87652588 28.5372467 C-56.86596444 16.48836724 -52.80131114 6.19017741 -41.90625 -0.51171875 C-28.00428246 -8.26112633 -14.47553823 -3.90406321 0 0 Z " fill="#242424" transform="translate(565.59375,131.80078125)"/>
<path d="M0 0 C186.12 0 372.24 0 564 0 C564 249.83193277 564 249.83193277 558.140625 257.40234375 C557.51671875 257.90894531 556.8928125 258.41554688 556.25 258.9375 C555.63640625 259.46214844 555.0228125 259.98679687 554.390625 260.52734375 C547.97993253 264.47641411 542.21884418 265.44101807 534.86004829 265.38031673 C533.52363439 265.38730661 533.52363439 265.38730661 532.16022223 265.3944377 C529.1773936 265.40638023 526.19502109 265.39699501 523.21218872 265.38768005 C521.051013 265.39185328 518.88983946 265.39733074 516.72867 265.40399987 C510.79158265 265.41847452 504.85463388 265.41420337 498.91753888 265.40683305 C492.51387043 265.40210871 486.11023227 265.41460475 479.70657349 265.42485046 C467.88703131 265.44106352 456.06753738 265.44348079 444.24798644 265.43854547 C433.32765053 265.4339879 422.40733107 265.43458797 411.4869957 265.44038582 C410.02202788 265.44114269 408.55706006 265.44189867 407.09209224 265.44265376 C404.88450041 265.44379896 402.67690859 265.44494884 400.46931677 265.44611301 C379.94545066 265.45681783 359.42159003 265.46154346 338.89772224 265.45364285 C338.12408378 265.45334567 337.35044532 265.4530485 336.55336326 265.45274232 C330.27092176 265.4502934 323.98848033 265.4476818 317.7060389 265.44505819 C293.20129808 265.43495613 268.69662579 265.44331045 244.19189453 265.46655273 C216.65751713 265.49262636 189.12318098 265.50547297 161.58879077 265.49836498 C158.65273913 265.49764893 155.71668749 265.49697454 152.78063583 265.49632454 C152.05771121 265.49615473 151.3347866 265.49598492 150.58995517 265.49580997 C139.67843516 265.49350724 128.76695346 265.50148272 117.85544205 265.51461601 C105.44557165 265.52952616 93.035808 265.52999743 80.6259376 265.5125451 C74.29359984 265.50401765 67.96143354 265.50192833 61.62910461 265.51719666 C55.83202983 265.53100142 50.03527406 265.52633454 44.23821793 265.50695742 C42.14138952 265.50318419 40.0445358 265.50615729 37.94772984 265.51656907 C15.85639983 265.61846165 15.85639983 265.61846165 7.59765625 259.10546875 C7.09105469 258.47253906 6.58445313 257.83960938 6.0625 257.1875 C5.53785156 256.56230469 5.01320312 255.93710937 4.47265625 255.29296875 C-41.52077488 183.6798545 0 85.11071518 0 0 Z " fill="#FBFBFB" transform="translate(224,594)"/>
<path d="M0 0 C2.88384962 11.2311074 4.71557613 22.62764223 6.61505127 34.05670166 C7.60056086 39.98457492 8.59895082 45.91027529 9.59765625 51.8359375 C9.79953552 53.03483612 10.00141479 54.23373474 10.20941162 55.46896362 C12.10666771 66.70124199 14.10669057 77.91396455 16.125 89.125 C18.85617394 104.31744727 21.41909063 119.52908519 23.86141968 134.77047729 C26.24185229 149.60282293 28.80280258 164.39832406 31.4375 179.1875 C34.83031449 198.23403124 38.08863104 217.29871074 41.24389648 236.38598633 C41.56360621 238.31982969 41.88334839 240.25366769 42.203125 242.1875 C42.43335106 243.58019356 42.43335106 243.58019356 42.66822815 245.00102234 C44.26903385 254.66273088 45.93445556 264.31296071 47.62988281 273.95849609 C47.90590332 275.53751709 47.90590332 275.53751709 48.1875 277.1484375 C48.34605469 278.04739746 48.50460937 278.94635742 48.66796875 279.87255859 C49 282 49 282 49 284 C-16.67 284 -82.34 284 -150 284 C-161.44196429 216.38839286 -161.44196429 216.38839286 -165.42114258 192.86572266 C-174.61192099 138.50311689 -174.61192099 138.50311689 -183.88088989 84.15380859 C-184.12377901 82.73651698 -184.36651987 81.31919994 -184.60910034 79.90185547 C-185.7621603 73.16504688 -186.92145748 66.42942758 -188.1072998 59.69830322 C-188.46952508 57.64152223 -188.83018485 55.58447245 -189.19042969 53.52734375 C-189.63276022 51.0058704 -190.07848643 48.48498931 -190.52832031 45.96484375 C-190.72264648 44.85496094 -190.91697266 43.74507812 -191.1171875 42.6015625 C-191.28847168 41.63557129 -191.45975586 40.66958008 -191.63623047 39.67431641 C-191.9897815 37.07512314 -192.02552036 34.6185941 -192 32 C-190.89081963 31.81993408 -190.89081963 31.81993408 -189.75923157 31.63623047 C-142.40841483 23.94999676 -142.40841483 23.94999676 -95.15136719 15.71118164 C-83.24763871 13.56425771 -71.32961455 11.53387721 -59.39230347 9.58279419 C-50.75585259 8.16873669 -42.13857268 6.67799056 -33.53515625 5.07421875 C-32.66256668 4.91169113 -31.78997711 4.74916351 -30.89094543 4.58171082 C-26.6605807 3.79156901 -22.43200512 2.9929499 -18.20532227 2.18334961 C-16.68116465 1.89560535 -15.15699534 1.60792308 -13.6328125 1.3203125 C-12.60408775 1.11924141 -12.60408775 1.11924141 -11.55458069 0.91410828 C-7.64993777 0.18216093 -3.97040431 -0.12986227 0 0 Z " fill="#FBFBFB" transform="translate(468,199)"/>
<path d="M0 0 C1.0099837 -0.00774497 2.01996741 -0.01548993 3.06055668 -0.0234696 C6.49035745 -0.04843543 9.92015765 -0.06612078 13.35000324 -0.08379459 C15.81577129 -0.09996438 18.28153685 -0.1165167 20.74729997 -0.13342148 C26.84280589 -0.17385573 32.93832331 -0.20927524 39.03387212 -0.24235883 C44.1037617 -0.26998116 49.17363391 -0.29985216 54.24350262 -0.33106136 C110.13071063 -0.67410708 166.01855046 -0.87587573 221.90657008 -1.03005496 C230.00427835 -1.05248982 238.10198407 -1.07579743 246.19968891 -1.09943485 C247.54187707 -1.10332557 247.54187707 -1.10332557 248.91118013 -1.10729489 C277.90824771 -1.19187323 306.90432077 -1.35048648 335.90081721 -1.54857124 C365.70502308 -1.75180327 395.50868419 -1.88300381 425.31357856 -1.9227211 C429.52474995 -1.92836003 433.73591975 -1.93480653 437.9470892 -1.94173717 C438.77588906 -1.94307398 439.60468893 -1.94441079 440.45860394 -1.9457881 C453.79125942 -1.96937681 467.12233115 -2.06847497 480.45435513 -2.19576526 C493.8625912 -2.32212533 507.26920487 -2.36791488 520.67800482 -2.33204281 C528.64245186 -2.31315434 536.60105791 -2.35531431 544.56448617 -2.48590846 C550.51759172 -2.57673054 556.46663986 -2.55199658 562.4201589 -2.48306227 C564.82360621 -2.47308624 567.22756107 -2.50020322 569.63005545 -2.5686081 C587.10567805 -3.0368245 587.10567805 -3.0368245 592.86551143 2.35693197 C597.14832304 7.6709078 600.31558259 13.4670075 603.27101258 19.59752535 C604.93527477 22.97531096 606.88488208 26.04871423 608.94797993 29.19621944 C610.12735641 31.08752888 611.30579899 32.97942112 612.48313618 34.87200069 C613.67929023 36.79286047 614.87590252 38.71343497 616.07297993 40.63371944 C616.63871723 41.54299191 617.20445454 42.45226437 617.7873354 43.38909054 C619.0249224 45.3566511 620.27801445 47.31450179 621.54221821 49.2650671 C622.1840102 50.2555505 622.82580219 51.2460339 623.48704243 52.26653194 C624.0730019 53.16218868 624.65896137 54.05784542 625.26267719 54.98064327 C626.54563618 57.18450069 626.54563618 57.18450069 626.54563618 59.18450069 C404.78563618 59.18450069 183.02563618 59.18450069 -45.45436382 59.18450069 C-40.64077087 50.76071302 -35.83143636 42.38841693 -30.76686382 34.12200069 C-30.17816509 33.15826534 -29.58946636 32.19452999 -28.98292828 31.20159054 C-24.71804686 24.22806357 -20.43588001 17.26512199 -16.14186382 10.30950069 C-15.58474712 9.40578732 -15.02763042 8.50207394 -14.4536314 7.5709753 C-13.94211529 6.74476681 -13.43059917 5.91855831 -12.90358257 5.06731319 C-12.45329693 4.33915401 -12.00301128 3.61099483 -11.53908062 2.86077023 C-8.86762848 -1.26756432 -4.49993966 0.01723587 0 0 Z " fill="#FBFBFB" transform="translate(215.454363822937,507.8154993057251)"/>
<path d="M0 0 C2.8062013 2.35140884 5.47669993 4.83344517 8.04370117 7.44360352 C11.29447996 10.70868049 11.29447996 10.70868049 16 11 C17.84645714 9.48809212 17.84645714 9.48809212 19.5625 7.4375 C30.36280321 -3.86189301 46.35297364 -11.04228874 62.00244141 -11.4309082 C81.82745641 -11.48323229 98.92973085 -4.89845038 113.1953125 9.1640625 C126.76904256 23.77001537 131.65679007 40.96195836 131.3359375 60.4921875 C130.122443 89.56591108 106.31919869 108.84482743 87.2890625 127.9140625 C86.34711533 128.85875287 85.40522512 129.80350004 84.46339035 130.74830246 C80.04842564 135.17685479 75.63153031 139.60346759 71.21171534 144.02717936 C66.13323388 149.11016629 61.06141543 154.19968341 55.99509966 159.29479563 C52.05532988 163.25617328 48.10982233 167.21177563 44.15990293 171.16303289 C41.80938545 173.51459598 39.46208175 175.86921795 37.11928177 178.22847366 C34.51572219 180.84903798 31.90292049 183.46003036 29.28759766 186.06884766 C28.51869202 186.84696808 27.74978638 187.6250885 26.95758057 188.42678833 C26.24298676 189.13581299 25.52839294 189.84483765 24.79214478 190.5753479 C23.86919837 191.50049415 23.86919837 191.50049415 22.92760658 192.44433022 C19.87017556 194.91182182 16.92956518 195.8813321 13.0625 196.375 C5.58129073 195.45893356 0.26234096 188.55856214 -4.80004883 183.49047852 C-5.6642897 182.63295486 -6.52853058 181.77543121 -7.41896057 180.891922 C-9.77844463 178.54813748 -12.1333172 176.19991816 -14.48559785 173.84891629 C-15.96101601 172.37492534 -17.43785177 170.90237017 -18.91519737 169.4303112 C-24.0853308 164.27866309 -29.25028988 159.12189211 -34.41040039 153.96020508 C-39.19317597 149.17623192 -43.98695217 144.40348638 -48.786125 139.63596779 C-52.92606794 135.52234435 -57.05809136 131.40087474 -61.18425959 127.27343506 C-63.63963093 124.8175582 -66.09787974 122.36476025 -68.564188 119.91986275 C-93.74930853 94.93814826 -93.74930853 94.93814826 -100 78 C-100.31839844 77.16082031 -100.63679688 76.32164062 -100.96484375 75.45703125 C-105.37770023 61.36436056 -104.96019518 43.53704461 -99 30 C-98.62617188 29.11441406 -98.25234375 28.22882812 -97.8671875 27.31640625 C-95.06083775 21.21120165 -91.39339751 16.06176427 -87 11 C-86.35417969 10.2471875 -85.70835937 9.494375 -85.04296875 8.71875 C-63.34317008 -14.79272017 -26.09289584 -17.80532595 0 0 Z " fill="#FBFAFB" transform="translate(495,634)"/>
<path d="M0 0 C2.8062013 2.35140884 5.47669993 4.83344517 8.04370117 7.44360352 C11.29447996 10.70868049 11.29447996 10.70868049 16 11 C17.84645714 9.48809212 17.84645714 9.48809212 19.5625 7.4375 C30.36280321 -3.86189301 46.35297364 -11.04228874 62.00244141 -11.4309082 C81.82745641 -11.48323229 98.92973085 -4.89845038 113.1953125 9.1640625 C126.76904256 23.77001537 131.65679007 40.96195836 131.3359375 60.4921875 C130.122443 89.56591108 106.31919869 108.84482743 87.2890625 127.9140625 C86.34711533 128.85875287 85.40522512 129.80350004 84.46339035 130.74830246 C80.04842564 135.17685479 75.63153031 139.60346759 71.21171534 144.02717936 C66.13323388 149.11016629 61.06141543 154.19968341 55.99509966 159.29479563 C52.05532988 163.25617328 48.10982233 167.21177563 44.15990293 171.16303289 C41.80938545 173.51459598 39.46208175 175.86921795 37.11928177 178.22847366 C34.51572219 180.84903798 31.90292049 183.46003036 29.28759766 186.06884766 C28.51869202 186.84696808 27.74978638 187.6250885 26.95758057 188.42678833 C26.24298676 189.13581299 25.52839294 189.84483765 24.79214478 190.5753479 C23.86919837 191.50049415 23.86919837 191.50049415 22.92760658 192.44433022 C19.87017556 194.91182182 16.92956518 195.8813321 13.0625 196.375 C5.58129073 195.45893356 0.26234096 188.55856214 -4.80004883 183.49047852 C-5.6642897 182.63295486 -6.52853058 181.77543121 -7.41896057 180.891922 C-9.77844463 178.54813748 -12.1333172 176.19991816 -14.48559785 173.84891629 C-15.96101601 172.37492534 -17.43785177 170.90237017 -18.91519737 169.4303112 C-24.0853308 164.27866309 -29.25028988 159.12189211 -34.41040039 153.96020508 C-39.19317597 149.17623192 -43.98695217 144.40348638 -48.786125 139.63596779 C-52.92606794 135.52234435 -57.05809136 131.40087474 -61.18425959 127.27343506 C-63.63963093 124.8175582 -66.09787974 122.36476025 -68.564188 119.91986275 C-93.74930853 94.93814826 -93.74930853 94.93814826 -100 78 C-100.31839844 77.16082031 -100.63679688 76.32164062 -100.96484375 75.45703125 C-105.37770023 61.36436056 -104.96019518 43.53704461 -99 30 C-98.62617188 29.11441406 -98.25234375 28.22882812 -97.8671875 27.31640625 C-95.06083775 21.21120165 -91.39339751 16.06176427 -87 11 C-86.35417969 10.2471875 -85.70835937 9.494375 -85.04296875 8.71875 C-63.34317008 -14.79272017 -26.09289584 -17.80532595 0 0 Z M-68.75 29.6875 C-75.66486414 37.92101265 -78.40530296 48.40109975 -78.27734375 58.96484375 C-77.04351509 72.46744751 -69.197576 82.27952771 -59.88330078 91.45727539 C-59.09238541 92.24862885 -58.30147003 93.0399823 -57.48658752 93.85531616 C-54.89655004 96.4432803 -52.29608387 99.02048325 -49.6953125 101.59765625 C-47.88719211 103.40017554 -46.07973729 105.20336269 -44.2729187 107.00718689 C-40.01809709 111.25176343 -35.75667216 115.48959612 -31.49189556 119.72416157 C-26.6321807 124.5502043 -21.78110396 129.38489111 -16.930691 134.22027981 C-6.96329529 144.15641921 3.01476048 154.08179502 13 164 C18.18222613 159.65648909 23.0594589 155.10899472 27.85961914 150.34912109 C28.61178207 149.60674194 29.36394501 148.86436279 30.13890076 148.0994873 C32.60747555 145.66063579 35.07194935 143.21770996 37.53515625 140.7734375 C38.80510343 139.51334806 38.80510343 139.51334806 40.1007061 138.22780228 C44.5785172 133.78247851 49.05231915 129.33315703 53.52368164 124.88134766 C57.20992619 121.21292284 60.90449425 117.55320438 64.60668945 113.90087891 C69.09560444 109.47233812 73.56944725 105.02908029 78.03310966 100.57509232 C79.72832929 98.88839443 81.4286516 97.20680789 83.13429451 95.53065109 C95.52461335 83.34315241 104.9123515 73.64093906 105.375 55.4375 C105.44371145 43.43223589 100.59628839 33.99505645 92.44921875 25.35546875 C83.65176846 17.06192969 72.71670131 14.39894843 60.9609375 14.66015625 C46.62750128 15.88994812 36.35692353 25.96821064 27 36 C26.05031545 37.13575505 25.1106302 38.28005846 24.1875 39.4375 C21.65459606 42.40461604 19.72528044 43.63354006 15.921875 44.44140625 C11.38754266 44.69421974 8.637214 44.22020567 5.125 41.25 C2.27064526 38.4637412 -0.36203555 35.49017227 -3.02099609 32.51831055 C-3.48844238 31.99664307 -3.95588867 31.47497559 -4.4375 30.9375 C-4.90494629 30.41518799 -5.37239258 29.89287598 -5.85400391 29.35473633 C-13.4588144 21.02320878 -22.81181298 15.61664124 -34.1640625 14.76171875 C-48.94412211 14.44476488 -58.58145988 19.14640561 -68.75 29.6875 Z " fill="#232323" transform="translate(495,634)"/>
<path d="M0 0 C2.70548028 0.53603263 5.27965647 1.12531996 7.92871094 1.85400391 C8.68437505 2.0532355 9.44003916 2.2524671 10.21860218 2.45773602 C12.72643342 3.12138721 15.23027506 3.79898065 17.734375 4.4765625 C19.53181889 4.95501869 21.32950917 5.43255008 23.12742615 5.90922546 C26.98291211 6.93333529 30.83671348 7.96348228 34.68930054 8.9984436 C40.82191444 10.64577314 46.95807157 12.27960593 53.0949707 13.91088867 C59.44359009 15.59895097 65.79205563 17.28756867 72.13935852 18.98057556 C91.07984702 24.03162544 110.03995748 29.00581103 129.00628662 33.95880127 C134.17162623 35.30795181 139.33616862 36.66013474 144.50048828 38.01318359 C145.77028345 38.34585613 145.77028345 38.34585613 147.06573105 38.68524933 C148.76994852 39.13175173 150.47416326 39.57826456 152.17837524 40.0247879 C164.20859338 43.17678413 176.2398771 46.32461175 188.27365589 49.46298885 C195.13015744 51.25151932 201.98535371 53.04499543 208.8396101 54.84211063 C212.85595029 55.89493588 216.87288802 56.94533478 220.89144897 57.98965454 C224.58500675 58.94952738 228.27686794 59.9156549 231.96747017 60.88682747 C233.31436346 61.24002895 234.66188311 61.59085154 236.01005363 61.93914604 C237.84054703 62.41240163 239.66864278 62.89490277 241.49658203 63.37792969 C242.51785187 63.64466492 243.5391217 63.91140015 244.59133911 64.18621826 C247 65 247 65 249 67 C245.535 79.375 245.535 79.375 242 92 C227.69839883 88.94819389 213.61353404 85.32031859 199.5 81.5 C197.08569511 80.84954487 194.67130448 80.19940793 192.25683594 79.54956055 C186.31591231 77.94946814 180.37605986 76.34545154 174.43667984 74.73964024 C169.24925872 73.33726487 164.06128894 71.93693261 158.87304688 70.53759766 C128.87777076 62.44725645 98.88405207 54.35202051 68.92178345 46.14013672 C48.94537266 40.66994046 28.92067517 35.37903834 8.89781666 30.08191872 C6.16116807 29.35785255 3.4246819 28.63317362 0.6882 27.90847778 C-1.21612315 27.40452993 -3.12074634 26.90171634 -5.02537537 26.39892578 C-6.16628128 26.09688232 -7.30718719 25.79483887 -8.48266602 25.48364258 C-9.97903343 25.08826042 -9.97903343 25.08826042 -11.50563049 24.68489075 C-13.35289782 24.17767788 -15.18266808 23.60577731 -17 23 C-16.46060437 20.09811175 -15.89473459 17.20582669 -15.3125 14.3125 C-15.08916992 13.08756836 -15.08916992 13.08756836 -14.86132812 11.83789062 C-12.999607 2.8213197 -9.46772066 -0.78699252 0 0 Z " fill="#F9F9FA" transform="translate(548,155)"/>
<path d="M0 0 C3.16112029 16.36980873 6.00973068 32.78458741 8.7421875 49.23046875 C8.90829781 50.23020847 9.07440811 51.2299482 9.24555206 52.25998306 C10.28383967 58.51432608 11.31867036 64.76923787 12.35229492 71.02435303 C13.89572674 80.36442238 15.44208133 89.70400476 16.9921875 99.04296875 C17.1604089 100.05699894 17.32863029 101.07102913 17.50194931 102.11578751 C19.98764868 117.08554835 22.55778961 132.03876552 25.19258881 146.98295403 C27.6145637 160.72146337 29.91754549 174.47526239 32.125 188.25 C34.76153873 204.68652916 34.76153873 204.68652916 37.6171875 221.0859375 C37.73804718 221.75141602 37.85890686 222.41689453 37.98342896 223.10253906 C38.52072779 226.04489648 39.06867968 228.98486234 39.62939453 231.92285156 C39.81356934 232.90995117 39.99774414 233.89705078 40.1875 234.9140625 C40.34605469 235.7385791 40.50460937 236.5630957 40.66796875 237.41259766 C41.07498168 240.5843058 41 243.80228331 41 247 C32.75 247 24.5 247 16 247 C12.54073424 228.56093348 9.26397873 210.10530344 6.15574646 191.60383224 C5.68561941 188.8079243 5.21369169 186.01232134 4.74180412 183.21671009 C2.24547552 168.42621667 -0.23198065 153.63261076 -2.69140625 138.8359375 C-2.90608047 137.54441772 -3.1207547 136.25289795 -3.3419342 134.92224121 C-4.18726371 129.83522307 -5.03243956 124.74817961 -5.87686157 119.66101074 C-8.47229496 104.03198517 -11.1230664 88.41472396 -13.875 72.8125 C-14.80102236 67.5470579 -15.7253263 62.28131454 -16.64715576 57.01513672 C-16.99095399 55.05166287 -17.33555406 53.08832948 -17.68017578 51.125 C-23.27290621 18.98504189 -23.27290621 18.98504189 -18.40625 10.78125 C-13.51294726 4.58306653 -8.06786275 -0.17112641 0 0 Z " fill="#FAFAFA" transform="translate(256,236)"/>
<path d="M0 0 C4.12133862 4.81502928 7.37913081 10.15143997 10.75 15.5 C11.36891113 16.47799561 11.98782227 17.45599121 12.62548828 18.46362305 C26 39.63089565 26 39.63089565 26 41 C13.79 41 1.58 41 -11 41 C-9.82060003 35.10300015 -8.68156122 29.49968154 -7.08984375 23.75 C-6.73986328 22.48285156 -6.38988281 21.21570313 -6.02929688 19.91015625 C-5.85003662 19.26836426 -5.67077637 18.62657227 -5.48608398 17.96533203 C-4.9310159 15.97677035 -4.38213314 13.98657266 -3.83398438 11.99609375 C-1.13638573 2.27277146 -1.13638573 2.27277146 0 0 Z " fill="#F8F8F8" transform="translate(764,441)"/>
<path d="M0 0 C2.07268303 3.10902455 2.48053222 4.78230263 3.0703125 8.40234375 C3.24433594 9.45744141 3.41835937 10.51253906 3.59765625 11.59960938 C3.77167969 12.70111328 3.94570312 13.80261719 4.125 14.9375 C4.30675781 16.03513672 4.48851562 17.13277344 4.67578125 18.26367188 C5.37670079 22.58249567 6 26.61492088 6 31 C-1.92 31 -9.84 31 -18 31 C-15.5948586 26.1897172 -13.32951324 21.72216973 -10.546875 17.1875 C-9.928125 16.17558594 -9.309375 15.16367187 -8.671875 14.12109375 C-7.72054687 12.57615234 -7.72054687 12.57615234 -6.75 11 C-6.1003125 9.93910156 -5.450625 8.87820313 -4.78125 7.78515625 C-3.19039036 5.18831184 -1.59658184 2.59332877 0 0 Z " fill="#F8F9F9" transform="translate(240,451)"/>
<path d="M0 0 C0.99 0 1.98 0 3 0 C3 5.61 3 11.22 3 17 C2.01 16.67 1.02 16.34 0 16 C0 10.72 0 5.44 0 0 Z " fill="#323233" transform="translate(209,249)"/>
<path d="M0 0 C0 0.33 0 0.66 0 1 C-6.08291273 3.1663492 -10.6447755 4.5197276 -17 3 C-11.81485923 -0.45676052 -6.08514218 -0.12418658 0 0 Z " fill="#1A1A1A" transform="translate(407,183)"/>
<path d="M0 0 C0.99 0 1.98 0 3 0 C2.67 1.98 2.34 3.96 2 6 C2.66 6 3.32 6 4 6 C3.67 6.99 3.34 7.98 3 9 C2.34 9 1.68 9 1 9 C0.67 6.03 0.34 3.06 0 0 Z " fill="#2E2E2E" transform="translate(230,388)"/>
<path d="M0 0 C0.99 0.495 0.99 0.495 2 1 C1.01 1.495 1.01 1.495 0 2 C0 1.34 0 0.68 0 0 Z M-1 2 C-0.34 2.33 0.32 2.66 1 3 C0.67 4.32 0.34 5.64 0 7 C-0.99 7 -1.98 7 -3 7 C-2.34 5.35 -1.68 3.7 -1 2 Z " fill="#F0F0EF" transform="translate(226,474)"/>
</svg>
